<svg version="1.2" xmlns="http://www.w3.org/2000/svg" viewBox="0 0 16 16" width="16" height="16"><style>.a{fill:#c2cfd7}</style><path class="a" d="m15.2 7.7q0 0.8-0.1 1.5-0.2 0.8-0.4 1.4-0.3 0.7-0.7 1.3-0.4 0.6-0.9 1.1-0.5 0.5-1.1 0.9-0.6 0.4-1.3 0.7-0.7 0.3-1.4 0.5-0.8 0.1-1.5 0.1-0.8 0-1.5-0.1-0.7-0.2-1.4-0.5-0.7-0.3-1.3-0.7-0.6-0.4-1.1-0.9-0.5-0.5-0.9-1.1-0.4-0.6-0.7-1.3-0.3-0.6-0.4-1.4-0.2-0.7-0.2-1.5 0-0.7 0.2-1.5 0.1-0.7 0.4-1.4 0.3-0.6 0.7-1.2 0.4-0.6 0.9-1.1 0.5-0.6 1.1-1 0.6-0.4 1.3-0.6 0.7-0.3 1.4-0.5 0.7-0.1 1.5-0.1 0.7 0 1.5 0.1 0.7 0.2 1.4 0.5 0.7 0.2 1.3 0.6 0.6 0.4 1.1 1 0.5 0.5 0.9 1.1 0.4 0.6 0.7 1.2 0.2 0.7 0.4 1.4 0.1 0.8 0.1 1.5zm-1 0c-0.1 0-2.3-0.5-4.5-0.2q-0.1-0.2-0.1-0.4-0.2-0.4-0.4-0.9c2.5-1 3.5-2.5 3.5-2.5 0.9 1.1 1.4 2.5 1.5 4zm-2.2-4.7c0 0-0.9 1.4-3.3 2.3-1.1-2-2.3-3.6-2.4-3.8q0.7-0.1 1.5-0.1c1.6 0 3.1 0.6 4.2 1.6zm-5.7-1.5q0 0-0.1 0.1 0 0 0.1-0.1zm-1.2 0.5c0 0.1 1.2 1.7 2.3 3.6-3 0.9-5.7 0.8-5.9 0.8 0.5-2 1.8-3.6 3.6-4.4zm-3.7 5.7q0-0.1 0-0.2c0.1 0 3.3 0.1 6.6-0.9q0.2 0.6 0.5 1.1-0.2 0-0.3 0.1c-3.4 1.1-5.2 4.2-5.2 4.2-1-1.1-1.6-2.6-1.6-4.3zm6.4 6.4c-1.6 0-3-0.5-4.1-1.4q0.2 0.1 0.2 0.1c0 0 1.2-2.7 5-4q0 0 0 0c0.9 2.3 1.3 4.3 1.4 4.8q-1.2 0.5-2.5 0.5zm3.5-1.1c0-0.4-0.4-2.2-1.2-4.5 2.1-0.4 3.8 0.2 4 0.3-0.3 1.7-1.3 3.3-2.8 4.2z"/></svg>