<svg version="1.2" xmlns="http://www.w3.org/2000/svg" viewBox="0 0 15 13" width="15" height="13"><style>.a{fill:#c2cfd7}</style><path class="a" d="m13.2 3.1q0 0.2 0 0.4c0 4.1-3 8.7-8.7 8.7-1.7 0-3.3-0.5-4.6-1.4q0.3 0.1 0.7 0.1c1.4 0 2.7-0.5 3.8-1.3-1.4 0-2.5-0.9-2.9-2.1q0.3 0 0.6 0 0.4 0 0.8-0.1c-1.4-0.3-2.4-1.5-2.4-3q0 0 0 0 0.6 0.3 1.3 0.4c-0.8-0.6-1.3-1.5-1.3-2.6q0-0.8 0.4-1.5c1.5 1.8 3.7 3 6.3 3.2q-0.1-0.4-0.1-0.7c0-1.7 1.4-3.1 3.1-3.1 0.8 0 1.6 0.4 2.2 1q1-0.2 1.9-0.8c-0.2 0.8-0.7 1.4-1.3 1.7q0.9-0.1 1.7-0.4-0.6 0.9-1.5 1.5z"/></svg>