<svg version="1.2" xmlns="http://www.w3.org/2000/svg" viewBox="0 0 15 15" width="15" height="15"><style>.a{fill:#c2cfd7}</style><path class="a" d="m14.9 9.9v2.1c0 1.5-1.2 2.7-2.7 2.7h-9.4c-1.5 0-2.7-1.2-2.7-2.7v-2.1c0-1.5 1.2-2.7 2.7-2.7h9.4c1.5 0 2.7 1.2 2.7 2.7zm-10.1-1h-0.9v4.3h-0.8v-4.3h-0.9v-0.8h2.6zm2.4 4.4h-0.7v-0.5q-0.2 0.3-0.4 0.4-0.3 0.1-0.5 0.1-0.2 0-0.4-0.2-0.1-0.1-0.1-0.5v-3.1h0.8v2.9q0 0.1 0 0.2 0 0 0.2 0 0 0 0.2 0 0.1-0.1 0.2-0.2v-2.9h0.7zm2.8-0.8q0 0.4-0.2 0.6-0.2 0.3-0.5 0.3-0.2 0-0.4-0.1-0.2-0.1-0.3-0.3v0.3h-0.8v-5.1h0.8v1.7q0.1-0.2 0.3-0.3 0.2-0.1 0.3-0.1 0.4 0 0.6 0.2 0.2 0.3 0.2 0.7zm2.6-1h-1.5v0.7q0 0.3 0.1 0.5 0.1 0.1 0.3 0.1 0.1 0 0.2-0.1 0.1-0.1 0.1-0.5v-0.1h0.8v0.2q0 0.5-0.3 0.8-0.3 0.3-0.9 0.3-0.5 0-0.8-0.3-0.2-0.3-0.2-0.8v-1.7q0-0.5 0.3-0.8 0.3-0.3 0.8-0.3 0.5 0 0.8 0.3 0.3 0.2 0.3 0.8zm-0.9-1.3q0.1 0.1 0.1 0.3v0.4h-0.7v-0.4q0-0.2 0.1-0.3 0.1-0.1 0.3-0.1 0.1 0 0.2 0.1zm-2.6 0q0.1 0.1 0.1 0.3v1.9q0 0.2-0.1 0.2 0 0.1-0.2 0.1-0.1 0-0.2 0 0-0.1-0.1-0.1v-2.4q0-0.1 0.1-0.1 0.1 0 0.2 0 0.1 0 0.2 0.1zm-5.1-6.5l-1.1-3.4h1l0.6 2.3 0.6-2.3h1l-1.1 3.3v2.3h-1zm2.5 2q-0.3-0.3-0.3-0.8v-2.1q0-0.5 0.3-0.8 0.3-0.3 0.9-0.3 0.5 0 0.9 0.3 0.3 0.3 0.3 0.8v2.1q0 0.5-0.3 0.8-0.4 0.3-0.9 0.3-0.6 0-0.9-0.3zm0.5-3q0-0.1 0.1-0.2 0.1-0.1 0.3-0.1 0.1 0 0.2 0.1 0.1 0.1 0.1 0.2v2.3q0 0.1-0.1 0.2-0.1 0.1-0.2 0.1-0.2 0-0.3-0.1-0.1-0.1-0.1-0.2zm2.4 3.1q-0.1-0.2-0.1-0.6v-3.4h0.8v3.1q0 0.2 0.1 0.2 0 0.1 0.2 0.1 0.1 0 0.2-0.1 0.1-0.1 0.3-0.2v-3.1h0.8v4.1h-0.8v-0.5q-0.3 0.3-0.5 0.4-0.3 0.2-0.5 0.2-0.3 0-0.5-0.2z"/></svg>